<svg xmlns="http://www.w3.org/2000/svg" viewBox="0 0 144 144" width="144" height="144">
  <!-- Light-mode nav logo: rust ring, white disc, rust R -->
  <circle cx="72" cy="72" r="60" fill="#CE422B"/>
  <circle cx="72" cy="72" r="48" fill="#FFFFFF"/>
  <g fill="#000000" opacity="0.2">
    <rect x="70" y="8" width="4" height="10"/>
    <rect x="70" y="126" width="4" height="10"/>
    <rect x="8" y="70" width="10" height="4"/>
    <rect x="126" y="70" width="10" height="4"/>
    <rect x="25" y="25" width="8" height="8" transform="rotate(45 29 29)"/>
    <rect x="111" y="25" width="8" height="8" transform="rotate(-45 115 29)"/>
    <rect x="25" y="111" width="8" height="8" transform="rotate(-45 29 115)"/>
    <rect x="111" y="111" width="8" height="8" transform="rotate(45 115 115)"/>
  </g>
  <g fill="#CE422B">
    <path d="M 55 55 L 55 89 L 60 89 L 60 74 L 70 74 L 78 89 L 84 89 L 75 73 C 80 71 83 67 83 61 C 83 54 78 55 72 55 Z M 60 60 L 72 60 C 75 60 78 61 78 64 C 78 67 75 69 72 69 L 60 69 Z"/>
  </g>
  <circle cx="72" cy="72" r="15" fill="none" stroke="#CE422B" stroke-width="2"/>
</svg>
